<svg xmlns="http://www.w3.org/2000/svg" viewBox="0 0 430 430">
  <defs>
    <style>
      .cls-1 {
        isolation: isolate;
      }

      .cls-2 {
        fill: #2ca58d;
      }

      .cls-3, .cls-8 {
        fill: #ebe6ef;
      }

      .cls-10, .cls-4 {
        fill: #646e78;
      }

      .cls-5, .cls-9 {
        fill: #b26836;
      }

      .cls-6, .cls-7 {
        fill: #3a3347;
      }

      .cls-10, .cls-7, .cls-8, .cls-9 {
        mix-blend-mode: multiply;
        opacity: 0.5;
      }
    </style>
  </defs>
  <g class="cls-1">
    <g id="Warstwa_1" data-name="Warstwa 1">
      <g>
        <path class="cls-2" d="M245.61,256.34,215,389.15,184.39,256.33a33.85,33.85,0,0,0,61.22,0Z"/>
        <path class="cls-2" d="M245.61,256.34,215,389.15,184.39,256.33a33.85,33.85,0,0,0,61.22,0Z"/>
        <path class="cls-3" d="M289.09,248.89a82.69,82.69,0,0,0-32.56-6.63h-7.62a33.59,33.59,0,0,1-3.27,14.15L215,389.23a153.91,153.91,0,0,0,59.11-11.92,85.26,85.26,0,0,1,23.07-6l29-3.36A15,15,0,0,0,339.53,353V325.26A83,83,0,0,0,289.09,248.89Zm0,69.68a15.47,15.47,0,1,1,15.47-15.47A15.47,15.47,0,0,1,289.09,318.57Z"/>
        <circle class="cls-3" cx="289.16" cy="303.1" r="15.47" transform="translate(-56.35 539.97) rotate(-80.78)"/>
        <path class="cls-3" d="M215,389.23h-.3a153.9,153.9,0,0,1-59.12-11.8l-.2-.08a89.45,89.45,0,0,0-24.07-6.26l-27.53-3.17A15,15,0,0,1,90.47,353V325.26a82.92,82.92,0,0,1,83-83h7.63v0a33.68,33.68,0,0,0,3.26,14.13Z"/>
        <circle class="cls-4" cx="289.09" cy="303.1" r="15.47"/>
        <path class="cls-5" d="M181.16,223V242a33.88,33.88,0,0,0,67.75,0V223S218,189.4,181.16,223Z"/>
        <path class="cls-5" d="M275.86,139.72,274.6,176a59.62,59.62,0,0,1-93.44,47,60.46,60.46,0,0,1-7.54-6.18A59.4,59.4,0,0,1,155.46,176l-1.38-39.72v-.24s14.09-74.19,73.09-70.21S275.86,139.72,275.86,139.72Z"/>
        <path class="cls-6" d="M154.08,136.31c39.08-1.63,70.28-25.94,84.83-60.1,32.79,23.36,31,43.82,37,63.53,14.38-19.65,11.56-58.75,1.5-74.17-8.38-12.84-23.67-17-23.67-17-21.79-5.29-44.08,2.54-55.14,7.5a14.16,14.16,0,0,1-14-1.37L168.67,43.37a13.08,13.08,0,0,0-18.57,3,81.07,81.07,0,0,0-12.82,33.42c-4.93,32.87,16.91,56.37,16.91,56.37"/>
        <path class="cls-7" d="M271,58.23a41,41,0,0,0-6.44-2.54C242.74,50.41,217.26,61,206.21,66c-4.6,2.06-13.19,4.21-17.29,1.28L173,55.92a13.07,13.07,0,0,0-18.56,3c-5.39,7.78-7.46,16.79-9.56,30.76-3,20.1,4,36.69,9.87,46.55l-.71,0,.11-.11s-21.85-23.51-16.91-56.38A80.93,80.93,0,0,1,150.1,46.4a13.07,13.07,0,0,1,18.56-3L184.54,54.7a14.16,14.16,0,0,0,14,1.37c11.05-5,33.34-12.79,55.14-7.5A48,48,0,0,1,271,58.23Z"/>
        <path class="cls-8" d="M181.87,248.82c-28.16,7.12-54.92,25.71-62.64,38.81-9.48,16.09-7.43,81.21-7.43,81.21l-8-.92A15,15,0,0,1,90.53,353V325.26a82.92,82.92,0,0,1,83-83h7.63a30.94,30.94,0,0,0,.25,3.75c0,.31.07.61.12.91l.09.59C181.69,248,181.78,248.39,181.87,248.82Z"/>
        <path class="cls-9" d="M248.91,223s-13.5,21.7-47.74,22.93a92.6,92.6,0,0,0-19.3,2.88c-.09-.43-.18-.87-.25-1.31l-.09-.59c-.05-.3-.09-.6-.12-.91a30.94,30.94,0,0,1-.25-3.75V223a59.64,59.64,0,0,0,67.75,0Z"/>
        <path class="cls-4" d="M289.12,291.13a3.5,3.5,0,0,1-3.5-3.5V248.89a3.5,3.5,0,0,1,7,0v38.74A3.5,3.5,0,0,1,289.12,291.13Z"/>
        <path class="cls-4" d="M161.05,343.54c0-.09.11-.18.15-.27s.07-.23.1-.34.08-.21.1-.32,0-.22,0-.34,0-.24,0-.36l.07-27.36c0-8.63-7.35-15.8-17-17.23V248.86a3.5,3.5,0,0,0-7,0v48.46c-9.63,1.43-17,8.6-17,17.24l.07,26.69a3.46,3.46,0,0,0,3.43,4.15h4.65a3.5,3.5,0,0,0,0-7h-1.09l-.06-23.85c0-5.69,6.16-10.5,13.45-10.5h.05c7.29,0,13.45,4.81,13.45,10.49l-.06,23.86h-1.15a3.5,3.5,0,0,0,0,7H158a3.35,3.35,0,0,0,.71-.07l.37-.11c.09,0,.19-.05.28-.09s.24-.13.36-.2l.24-.12a3.73,3.73,0,0,0,.3-.26c.07-.06.15-.11.21-.17a3.47,3.47,0,0,0,.25-.29c.06-.08.13-.15.18-.23A3.3,3.3,0,0,0,161.05,343.54Z"/>
        <path class="cls-4" d="M289.12,322.07a19,19,0,1,1,19-19A19,19,0,0,1,289.12,322.07Zm0-30.94a12,12,0,1,0,12,12A12,12,0,0,0,289.12,291.13Z"/>
        <path class="cls-10" d="M289.12,322.07a19,19,0,1,1,19-19A19,19,0,0,1,289.12,322.07Zm0-30.94a12,12,0,1,0,12,12A12,12,0,0,0,289.12,291.13Z"/>
      </g>
    </g>
  </g>
</svg>