<svg xmlns="http://www.w3.org/2000/svg" viewBox="0 0 430 430">
  <defs>
    <style>
      .cls-1 {
        isolation: isolate;
      }

      .cls-2, .cls-6 {
        fill: #3a3347;
      }

      .cls-3, .cls-7 {
        fill: #f9c9c0;
      }

      .cls-4, .cls-8 {
        fill: #4bb3fd;
      }

      .cls-5, .cls-9 {
        fill: #f24c00;
      }

      .cls-6, .cls-7, .cls-8, .cls-9 {
        mix-blend-mode: multiply;
        opacity: 0.5;
      }
    </style>
  </defs>
  <g class="cls-1">
    <g id="Warstwa_1" data-name="Warstwa 1">
      <g>
        <path class="cls-2" d="M256.5,236.63h-7.62a33.88,33.88,0,0,1-67.75,0H173.5a83,83,0,0,0-83,83v27.76a15,15,0,0,0,13.28,14.9l27.53,3.17a89.45,89.45,0,0,1,24.07,6.26l.2.08a154,154,0,0,0,118.53-.12,85.26,85.26,0,0,1,23.07-6l29-3.36a15,15,0,0,0,13.28-14.9V319.63A83,83,0,0,0,256.5,236.63ZM288.87,316a21.38,21.38,0,0,1-42.75,0V294.65h42.75Z"/>
        <path class="cls-3" d="M248.88,217.39v19.24a33.88,33.88,0,0,1-67.75,0V217.39a0,0,0,0,0,0,0,59.67,59.67,0,0,0,67.74,0Z"/>
        <path class="cls-4" d="M274.39,173.52a59.55,59.55,0,0,1-25.5,43.86h0a59.67,59.67,0,0,1-67.74,0,0,0,0,0,1,0,0,60.46,60.46,0,0,1-7.54-6.18,59.41,59.41,0,0,1-18-37.69h0l22.51,3.38c12.22,1.82,24.55-5.26,36.87-5.26s24.65,7.08,36.87,5.26Z"/>
        <path class="cls-3" d="M275.84,134.07v0l-1.26,36.29c0,1-.1,2.09-.19,3.12l-22.52,3.37c-12.22,1.82-24.55-5.26-36.87-5.26s-24.65,7.08-36.87,5.26l-22.51-3.38c-.09-1-.15-2.06-.19-3.11l-1.38-39.72c39.08-1.63,70.28-14.94,84.83-49.1C270.93,104.41,275.64,132.8,275.84,134.07Z"/>
        <path class="cls-5" d="M278.4,103.22l-2.56,30.85c-.2-1.27-4.91-29.66-37-52.49-14.55,34.16-45.75,47.47-84.83,49.1l-.08-2.26v-.07l-2.19-25.08C149.74,79.85,168.5,46.4,215,46.4,262,46.4,280.34,79.83,278.4,103.22Z"/>
        <path class="cls-2" d="M288.87,294.65V316a21.38,21.38,0,0,1-42.75,0V294.65Z"/>
        <path class="cls-6" d="M288.87,297.65v17.87c0,11.59-9,21.46-20.6,21.87A21.37,21.37,0,0,1,246.12,316V297.65a3,3,0,0,1,3-3h36.75A3,3,0,0,1,288.87,297.65Z"/>
        <path class="cls-6" d="M181.84,243.19c-28.16,7.12-54.92,25.71-62.64,38.81-9.48,16.09-7.43,81.21-7.43,81.21l-8-.92a15,15,0,0,1-13.28-14.9V319.63a82.92,82.92,0,0,1,83-83h7.63a30.94,30.94,0,0,0,.25,3.75c0,.31.07.61.12.91l.09.59C181.66,242.32,181.75,242.76,181.84,243.19Z"/>
        <path class="cls-7" d="M248.88,217.39s-13.5,21.7-47.74,22.93a92.6,92.6,0,0,0-19.3,2.88c-.1-.43-.18-.87-.25-1.31,0-.19-.06-.39-.1-.59s-.08-.6-.11-.91a30.93,30.93,0,0,1-.26-3.75V217.4a59.65,59.65,0,0,0,67.76,0Z"/>
        <path class="cls-8" d="M237.71,223.45a59.71,59.71,0,0,1-56.55-6,61.15,61.15,0,0,1-7.58-6.22,59.32,59.32,0,0,1-18-37.62S175.87,228.43,237.71,223.45Z"/>
        <path class="cls-9" d="M213,113.87c-15.73,10.86-36,15.84-58.9,16.8l-.08-2.26v-.07l-2.19-25.08a46.62,46.62,0,0,1,3.13-20.54C154.67,84.3,146.26,141.14,213,113.87Z"/>
      </g>
    </g>
  </g>
</svg>